<?xml version="1.0" encoding="UTF-8"?><svg id="Layer_1" xmlns="http://www.w3.org/2000/svg" viewBox="0 0 1599.36 309.25"><defs><style>.cls-1{fill:#f5a01d;}.cls-1,.cls-2{stroke-width:0px;}.cls-2{fill:#fff;}</style></defs><path class="cls-1" d="M19.1,154.62c.02-74.83,60.7-135.48,135.53-135.45,16.35,0,32.56,2.97,47.86,8.75,2.49-6.13,6.29-11.65,11.13-16.15C134.72-20.85,44.33,16.68,11.72,95.58c-19.36,46.84-14.53,100.18,12.93,142.78,3.49-5.66,8.15-10.5,13.68-14.2-12.6-21.01-19.24-45.05-19.21-69.55h0ZM283.33,69.1c-3.51,5.6-8.19,10.38-13.71,14.01,39.47,63.58,19.92,147.11-43.65,186.58-36.31,22.54-81.12,26.63-120.9,11.04-2.72,6.08-6.74,11.48-11.79,15.82,78.38,33.85,169.36-2.25,203.21-80.63,20.74-48.01,15.79-103.26-13.15-146.82ZM245.47,71.3c14.96.25,27.28-11.67,27.54-26.62.25-14.96-11.67-27.28-26.62-27.54-.31,0-.61,0-.92,0-14.96.25-26.87,12.58-26.62,27.54.25,14.6,12.02,26.38,26.62,26.62ZM62.92,290.39c14.96.25,27.28-11.67,27.54-26.62.25-14.96-11.67-27.28-26.62-27.54-.3,0-.61,0-.92,0-14.96.25-26.87,12.58-26.62,27.54.25,14.6,12.02,26.38,26.62,26.62Z"/><path class="cls-2" d="M154.57,55.14c-54.92-.02-99.46,44.48-99.48,99.41-.02,54.92,44.48,99.46,99.41,99.48h.02c54.92.02,99.46-44.49,99.48-99.41.02-54.92-44.49-99.46-99.41-99.48ZM177.49,198.07c-6.49,5.18-15.49,7.78-27.01,7.78-9.75.15-19.4-1.95-28.21-6.12v-19.52c5.51,2.57,11.22,4.68,17.07,6.34,4.16,1.16,8.45,1.79,12.76,1.86,3.75.23,7.48-.7,10.68-2.66,2.5-1.85,3.89-4.84,3.7-7.94.02-1.86-.54-3.68-1.62-5.2-1.38-1.7-3.06-3.14-4.95-4.25-4.2-2.55-8.54-4.84-13.01-6.88-4.91-2.15-9.52-4.93-13.7-8.27-2.99-2.56-5.47-5.68-7.28-9.17-1.89-3.8-2.83-8-2.73-12.24-.39-7.94,2.91-15.62,8.94-20.81,6.12-5.02,14.26-7.56,24.79-7.56,4.99-.02,9.97.6,14.81,1.84,5.12,1.33,10.13,3.06,14.96,5.17l-6.82,16.4c-4.28-1.83-8.69-3.35-13.19-4.56-3.35-.84-6.79-1.27-10.25-1.28-3.3-.22-6.57.77-9.18,2.78-2.07,1.84-3.19,4.52-3.06,7.28-.04,1.73.41,3.43,1.31,4.9,1.08,1.6,2.47,2.96,4.1,4,4.24,2.58,8.62,4.91,13.13,6.98,9.31,4.47,15.69,8.94,19.15,13.4,3.54,4.75,5.36,10.54,5.18,16.46.38,8.2-3.17,16.1-9.55,21.26h0Z"/><path class="cls-1" d="M977.6,249.06c8.16,0,14.78-6.62,14.78-14.78s-6.62-14.78-14.78-14.78-14.78,6.62-14.78,14.78,6.62,14.78,14.78,14.78Z"/><path class="cls-2" d="M380.18,209.79v-8.47c-.26-1.79.98-3.45,2.77-3.71.32-.05.64-.05.96,0h11.93c1.79-.25,3.45.99,3.7,2.79.04.31.04.62,0,.92v6.82c0,15.92,7.86,23.87,23.59,23.87h23.34c15.73,0,23.6-8.15,23.6-24.48v-8.87c0-12.73-10.51-21.02-31.55-24.9-8.79-1.55-17.63-3.41-26.53-5.57-8.5-1.91-16.3-6.15-22.52-12.24-6.4-6.72-9.72-15.8-9.17-25.07v-13.06c0-12.24,3.49-21.84,10.49-28.79,7-6.96,16.59-10.45,28.77-10.47h29.43c12,0,21.54,3.48,28.64,10.47,7.1,6.97,10.63,16.57,10.59,28.79v6.61c0,2.66-1.16,3.98-3.46,3.98h-12.24c-2.3,0-3.46-1.31-3.46-3.98v-4.78c0-16.05-7.86-24.09-23.59-24.12h-22.58c-15.74,0-23.62,8.4-23.62,25.19v10.59c0,9.04,5.93,15.23,17.78,18.57,5.3,1.41,11.14,2.69,17.51,3.86,6.48,1.16,12.89,2.66,19.21,4.5,6.08,1.72,11.98,4.02,17.62,6.88,5.4,2.83,9.87,7.17,12.85,12.49,3.44,6.18,5.14,13.18,4.92,20.25v11.93c0,12.24-3.54,21.84-10.61,28.8-7.08,6.96-16.66,10.43-28.74,10.47h-30.59c-12.03,0-21.58-3.49-28.64-10.47-7.06-6.98-10.53-16.58-10.4-28.8h0ZM621.48,249.06h-83.26c-1.81.25-3.48-1.01-3.73-2.82-.04-.3-.04-.61,0-.91V82.26c-.24-1.81,1.04-3.47,2.85-3.71.29-.04.59-.04.89,0h83.26c1.79-.26,3.45.97,3.71,2.76.05.32.05.64,0,.95v9.61c.26,1.8-1,3.47-2.81,3.73-.3.04-.6.04-.9,0h-64.96c-1.78,0-2.67.8-2.67,2.39v53.54c0,1.59.89,2.38,2.67,2.38h56.73c1.79-.25,3.45,1,3.7,2.8.04.3.04.61,0,.91v9.55c.27,1.79-.96,3.46-2.75,3.73-.31.05-.63.05-.94,0h-56.73c-1.78,0-2.67.79-2.67,2.38v56.27c0,1.6.89,2.4,2.67,2.4h64.96c1.8-.25,3.46,1.01,3.71,2.81.04.31.04.62,0,.92v9.51c.33,1.79-.86,3.51-2.65,3.84-.35.06-.71.07-1.06.02h0ZM735.49,249.06h-31.7c-12.24,0-21.83-3.45-28.76-10.35-6.94-6.89-10.43-16.53-10.5-28.91v-91.99c0-12.38,3.49-22.03,10.5-28.92,6.99-6.89,16.58-10.34,28.76-10.34h31.82c12.24,0,21.83,3.45,28.76,10.34,6.94,6.89,10.43,16.53,10.47,28.91v12.99c.15,1.02-.19,2.06-.94,2.78-.73.74-1.77,1.08-2.8.91h-11.93c-1.79.27-3.46-.97-3.72-2.76-.05-.31-.05-.63,0-.94v-12.24c0-15.4-7.42-23.1-22.24-23.07h-27.33c-14.69,0-22.02,7.69-22,23.07v90.45c0,15.4,7.33,23.1,22,23.07h27.33c14.84,0,22.26-7.69,22.24-23.07v-12.24c-.26-1.8,1-3.48,2.8-3.73.31-.04.62-.04.93,0h11.93c1.81-.24,3.47,1.02,3.71,2.83.04.3.04.6,0,.9v12.97c0,12.41-3.49,22.04-10.47,28.92-6.98,6.87-16.59,10.34-28.86,10.4h0ZM906.49,78.56h11.93c2.47,0,3.73,1.16,3.73,3.45v127.78c0,12.41-3.45,22.04-10.35,28.92-6.89,6.88-16.44,10.33-28.64,10.35h-29.44c-12.24,0-21.83-3.45-28.76-10.35-6.93-6.89-10.43-16.53-10.47-28.91v-127.55c-.26-1.79.99-3.45,2.78-3.71.31-.04.62-.04.92,0h11.93c1.79-.25,3.45.99,3.7,2.79.04.31.04.62,0,.92v126.74c0,15.4,7.34,23.1,22.01,23.07h24.93c14.85,0,22.28-7.69,22.28-23.07v-126.73c0-2.45,1.14-3.71,3.43-3.71h0ZM983.66,203.06h-11.93c-1.56.22-3.06-.71-3.57-2.2-.16-.48-.2-1-.13-1.5v-117.1c-.26-1.78.97-3.44,2.75-3.7.32-.05.64-.05.95,0h60.98c12.24,0,21.87,3.49,28.88,10.47,7.02,6.97,10.56,16.57,10.62,28.79v24.12c.34,8.72-2.18,17.32-7.17,24.48-4.88,6.52-11.94,11.08-19.89,12.85v1.07l30.75,64.54c1.59,2.84.7,4.25-2.64,4.25h-11.93c-2.75.15-5.34-1.3-6.64-3.73l-29.71-64.26h-34.97c-1.77,0-2.66.8-2.66,2.39v15.78c.24,1.58-.68,3.11-2.19,3.63-.49.16-1.01.21-1.51.13h0ZM990.02,165h40.03c15.2,0,22.79-7.61,22.79-22.8v-23.59c0-15.4-7.6-23.1-22.79-23.07h-40.03c-1.77,0-2.66.8-2.66,2.39v64.69c0,1.59.89,2.39,2.66,2.39ZM1136.38,82.26v163.06c.21,1.58-.72,3.08-2.23,3.59-.48.16-1,.21-1.51.14h-11.93c-1.77.34-3.48-.83-3.81-2.6-.07-.37-.08-.76-.01-1.14V82.26c-.23-1.57.7-3.08,2.2-3.57.48-.16,1-.2,1.5-.13h11.93c1.8-.32,3.52.88,3.84,2.68.06.34.07.68.02,1.02ZM1226.52,249.06h-11.93c-1.8.25-3.46-1-3.71-2.8-.04-.31-.04-.63,0-.94V97.98c0-1.58-.88-2.38-2.66-2.38h-36.08c-2.63,0-3.97-1.26-3.97-3.73v-9.61c0-2.45,1.34-3.71,3.97-3.71h96.79c2.67,0,3.98,1.26,3.98,3.71v9.61c0,2.47-1.31,3.73-3.98,3.73h-36.04c-1.78,0-2.67.8-2.67,2.38v147.34c.16,1.02-.18,2.06-.91,2.79-.72.75-1.76,1.1-2.79.94h0ZM1324.07,82.26v163.06c.17,1.03-.17,2.07-.91,2.8-.73.74-1.77,1.09-2.79.93h-11.93c-1.8.25-3.46-1.01-3.71-2.8-.04-.31-.04-.62,0-.92V82.26c-.26-1.79.99-3.45,2.78-3.71.31-.04.62-.04.92,0h11.93c1.79-.25,3.45.99,3.7,2.79.04.31.04.62,0,.92h0ZM1363.33,245.32v-9.64c-.2-2.42.36-4.83,1.59-6.92l82.19-131.24v-1.07h-76.5c-1.78.28-3.45-.93-3.73-2.71-.05-.33-.05-.67,0-1v-10.49c-.25-1.8,1-3.46,2.79-3.71.31-.04.63-.04.94,0h93.85c1.02-.15,2.05.2,2.77.93.72.73,1.06,1.76.93,2.78v12.67c.06,2.63-.68,5.22-2.11,7.44l-80.21,127.59v1.07h81.15c2.48,0,3.7,1.13,3.7,3.42v10.62c0,2.63-1.22,3.98-3.7,3.98h-99.96c-1.79.26-3.45-.98-3.71-2.76-.05-.32-.05-.65,0-.97ZM1595.58,249.06h-83.23c-1.04.17-2.09-.17-2.84-.91-.75-.74-1.1-1.79-.96-2.83V82.27c-.14-1.03.21-2.06.95-2.78.73-.72,1.76-1.06,2.78-.93h83.24c1.81-.25,3.48,1.01,3.73,2.82.04.29.04.59,0,.89v9.61c.21,1.58-.72,3.08-2.23,3.59-.48.16-1,.21-1.51.14h-64.9c-1.75,0-2.64.8-2.64,2.38v53.54c0,1.59.89,2.4,2.64,2.4h56.76c1.57-.26,3.1.64,3.64,2.13.17.48.22.99.15,1.5v9.55c.17,1.03-.17,2.07-.91,2.8-.73.74-1.77,1.09-2.79.93h-56.85c-1.75,0-2.64.8-2.64,2.4v56.33c0,1.58.89,2.38,2.64,2.38h64.96c1.58-.22,3.09.72,3.6,2.23.16.49.21,1,.13,1.51v9.52c.27,1.6-.65,3.17-2.19,3.71-.5.17-1.03.22-1.55.15h0Z"/></svg>